<svg version="1.1" id="team1" xmlns="http://www.w3.org/2000/svg" x="0px" y="0px" viewBox="0 0 220 40" style="width: 220px; height: 40px;">
<path fill="#7F96A6" d="M75.2,19.1c1.6-1.4,3.3-3.9,3.3-6.9c0-5.3-3.1-10.9-11.4-10.9c-3.2,0-17.6,0-17.6,0v11.4v15.2v11.4
	c0,0,16,0,19.9,0c6.2,0,10.5-5.6,10.5-10.6C79.9,24.3,77.8,20.9,75.2,19.1z M58.3,9.5c0,0,5.7,0,7.4,0c1.6,0,2.9,1.8,2.9,3.5
	c0,1.9-1.4,3.5-3.7,3.5c-2.3,0-6.7,0-6.7,0v-3.9L58.3,9.5L58.3,9.5z M65.2,31.5c-2.3,0-7,0-7,0v-3.7v-4.1c0,0,5.1,0,7.3,0
	c2.6,0,4.1,2.1,4.1,3.9C69.6,29.4,68.4,31.5,65.2,31.5z"/>
<path fill="#7F96A6" d="M99.7,0.5c-8.5,0-17.5,6.9-17.5,19.5c0,11.6,7.7,19.8,17.5,19.8c9.8,0,17.5-8.2,17.5-19.8
	C117.2,7.4,108.2,0.5,99.7,0.5z M99.7,31.2c-5,0-8.7-5.2-8.7-11.4c0-6,4.9-10.4,8.7-10.4c3.9,0,8.8,4.4,8.8,10.4
	C108.4,25.9,104.7,31.2,99.7,31.2z"/>
<path fill="#7F96A6" d="M139.7,16.3c-6.2-0.9-9.9-1.8-9.9-4.6c0-2.1,1.1-3.5,4-3.5c2.7,0,6.2,1.4,8.4,3l5.1-6
	C143.9,2.3,137,0,134.5,0c-8.8,0-14.4,5.3-14.4,12.2c0,7.1,4.9,10.4,9.7,11.2c5.4,0.8,9.3,2,9.3,4.7c0,2.2-2.3,3.3-4.8,3.3
	c-4.1,0-7-2-9.5-4.6c-2.6,2.6-5.8,6-5.8,6c3.1,3.7,7.2,6.9,14.6,6.9c10,0,15.3-7.1,15.3-12.2C148.9,21.1,144.5,17,139.7,16.3z"/>
<path fill="#7F96A6" d="M169.4,9.3c2.9,0,4.3,1.6,6.8,4.4l7.2-4.9c-3.5-5.3-7.9-8.5-14.5-8.5c-9.4,0-17.2,8.6-17.2,19.9
	c0,11.3,7.8,19.9,17.2,19.9c6.6,0,10.9-3.2,14.5-8.5l-7.2-4.9c-2.5,2.8-3.9,4.4-6.8,4.4c-4.8,0-8.6-4.1-8.6-10.9
	C160.8,13.3,164.6,9.3,169.4,9.3z"/>
<polygon fill="#7F96A6" points="208,14.5 196.5,14.5 196.5,1.2 187.2,1.2 187.2,39.2 196.5,39.2 196.5,24.1 208,24.1 208,39.2 
	217.3,39.2 217.3,1.2 208,1.2 "/>
<path fill="#7F96A6" d="M32.6,10.5c-1-1.2-2.3-2.1-3.6-2.9v6.7h-6.9h-7V7.6c-1.4,0.7-2.6,1.7-3.6,2.8c-2.3,2.6-3.7,6-3.7,9.6
	c0,3.5,1.4,7,3.7,9.6c1,1.2,2.2,2.1,3.6,2.9v-6.9h7H29v6.9c1.4-0.7,2.6-1.7,3.6-2.9c2.3-2.6,3.7-6,3.7-9.6S34.9,13,32.6,10.5z
	 M11.5,26.5c-1.2-2-1.9-4.2-1.9-6.5c0-2.3,0.7-4.6,1.9-6.5c0.5-0.8,1.1-1.6,1.8-2.3l0,17.7C12.7,28.2,12,27.4,11.5,26.5z M29,23.7
	h-6.9h-7v-7.5h7H29V23.7z M30.7,28.9V11.2c0.7,0.7,1.3,1.4,1.9,2.3c1.2,2,1.9,4.2,1.9,6.5c0,2.3-0.7,4.6-1.9,6.5
	C32,27.4,31.4,28.2,30.7,28.9z"/>
<path fill="#7F96A6" d="M32.6,3.8c-3-2-6.6-3.1-10.5-3.1c-3.9,0-7.5,1.2-10.6,3.1C6.2,7.3,2.7,13.3,2.7,20s3.5,12.7,8.8,16.2
	c3,2,6.7,3.2,10.6,3.2c3.9,0,7.4-1.2,10.5-3.1c5.3-3.5,8.8-9.5,8.8-16.3C41.4,13.2,37.9,7.2,32.6,3.8z M32.6,33.9
	c-2.9,2.2-6.5,3.5-10.5,3.5s-7.7-1.3-10.6-3.6C7.3,30.6,4.7,25.6,4.7,20S7.4,9.4,11.5,6.2c2.9-2.3,6.6-3.6,10.6-3.6
	s7.6,1.3,10.5,3.5c4.2,3.2,6.9,8.2,6.9,13.9S36.8,30.7,32.6,33.9z"/>
</svg>
