<svg version="1.1" id="team1" xmlns="http://www.w3.org/2000/svg" x="0px" y="0px" viewBox="0 0 230 40" style="width: 230px; height: 40px;">
<path fill="#7F96A6" d="M28.1,14.8c0,5-2.4,8.3-8.5,8.3h-1.9V7.3c0.7-0.1,1.3-0.1,1.9-0.1C25.3,7.3,28.1,10,28.1,14.8 M21.8,30.2
	c10.9,0,17.8-5.6,17.8-15.4C39.7,3.9,32.3,0,20.2,0C15.5,0,9.9,0.3,5.9,0.8v38.5h11.7v-9.2h4.2V30.2z M179.2,14.8
	c0,5-2.4,8.3-8.5,8.3h-1.9V7.3c0.7-0.1,1.3-0.1,1.9-0.1C176.4,7.3,179.2,10,179.2,14.8 M172.9,30.2c10.9,0,17.8-5.6,17.8-15.4
	c0-10.8-7.3-14.7-19.4-14.7C166.7,0,161,0.3,157,0.8v38.5h11.7v-9.2h4.2V30.2z M206.1,10.6c0-2.1,2.1-3.1,5.5-3.1
	c3.7,0,7.7,0.8,10.4,1.9l-1-8.3c-3.1-0.6-5.8-1.1-10.8-1.1c-9.5,0-15.9,3.7-15.9,11.6c0,13.5,18.3,10.8,18.3,17
	c0,2.4-1.7,3.7-6.1,3.7c-3.8,0-9.8-1.3-13.3-3.1l1.3,8.8c3.5,1.3,8.3,1.9,12.2,1.9c9.8,0,17.8-3.2,17.8-12.9
	C224.6,14.3,206.1,16.7,206.1,10.6 M148.2,0.8h-11.7v38.5h11.7V0.8z M100.5,0.8H88.8v38.5h11.7C100.5,39.3,100.5,0.8,100.5,0.8z
	 M120.9,31.6V0.8h-11.7v38.5h21.3l1.7-7.7H120.9L120.9,31.6z M80.1,0.8H68.4v15.3H56.1V0.8H44.3v38.5h11.8V24.2h12.2v15.1h11.7
	L80.1,0.8L80.1,0.8z"/>
</svg>
