<svg version="1.1" id="team1" xmlns="http://www.w3.org/2000/svg" x="0px" y="0px" viewBox="0 0 260 40" style="width: 260px; height: 40px;">
<polygon fill="#7F96A6" points="5.9,39 14.5,0 30,0 30.7,21.8 41,0 56.6,0 47.8,39 36.7,39 41.3,17.9 30.9,39 22.8,39 22.4,17.9 
	17.2,39 	"/>
<polygon fill="#7F96A6" points="57.9,6.4 68.3,6.4 69.7,0 59.3,0 	"/>
<polygon fill="#7F96A6" points="61.1,39 50.5,39 57,10 67.5,10 	"/>
<path fill="#7F96A6" d="M100.8,10h9.3l-0.8,3.5c1.3-1.6,2.8-2.5,4.8-3.2c1.6-0.6,3.1-0.8,4.9-0.8l-2.4,9.3c-0.6,0-7.9-1.4-10.2,9.7
	L104,38.8h-9.9L100.8,10L100.8,10z"/>
<path fill="#7F96A6" d="M95.3,28.3c0,0.3-3.2,11.9-17.8,11.4C58.1,39.4,63.1,8.2,85.3,9.3c12.6,0.6,11.9,11,11.9,11.4H86.3
	c0.1-0.4,0.6-4.7-3-4.7c-6.5,0.3-11,16.2-4,16.4c3.2,0.1,4.8-3.7,5.1-4.1L95.3,28.3L95.3,28.3z"/>
<path fill="#7F96A6" d="M188.5,39.8c-21.1-0.8-14.8-31.9,6.9-30.9C215.8,9.9,210,40.7,188.5,39.8L188.5,39.8z M194.8,15.7
	c-7.1-1.4-12.3,15.4-5.5,16.8C196.6,34.1,201.5,17.1,194.8,15.7L194.8,15.7z"/>
<path fill="#7F96A6" d="M228.1,5.8c-2.8,0-3.4,1.1-4,3.2l-0.1,1h6.1l1.6-6.9h9.6l-1.6,6.9h4.9l-1.4,6.6h-4.9l-2.7,12.7
	c-0.1,0.7-0.4,1.3-0.1,2.1c0.4,1.1,4.5,0.7,4.5,0.7l-1.6,6.6c0,0-8.3,1-11.2-1c-1.3-0.8-2.7-2.7-1.8-6.5l3.2-14.6h-5.8L218.1,39
	h-10.3l4.8-22.2h-5.4l1.6-6.6h5.2c1-3.7,1.7-6.2,4.1-8.2c3.1-2.5,11.3-1.6,11.3-1.6L228.1,5.8L228.1,5.8z"/>
<path fill="#7F96A6" d="M135.4,29.1H155c0,0-1.7,4.4,4.5,4.4c4.2,0,5.9-4.8,0.1-5.9c-2.7-0.4-12.9-2.1-11.7-10
	c1-6.5,7.6-8.8,15-8.6c15,0.1,12.2,9,12.4,9.6h-10c0,0,1.1-3.7-3.4-3.7c-4.1,0-5.1,3.7-0.4,4.7c5.8,1.3,12.4,1.6,12.9,9
	c0.1,2.1-1.1,11.9-16.2,11.4c-13.8-0.3-14.8-6.8-14.4-9.9c-2.5,5.4-8.9,10-17.2,9.7c-21.2-0.7-14.8-31.9,6.8-30.8
	c9.9,0.4,13.6,7.9,12.4,15.3c-0.1,1.3-0.3,1.6-0.7,1.6L135.4,29.1L135.4,29.1z M132.6,15.7c-6.9-1.4-12.2,15.4-5.5,16.8
	C134.4,34.1,139.4,17.1,132.6,15.7L132.6,15.7z"/>
<path fill="#7F96A6" d="M250.4,10c4.9,0,4.9,7.5,0,7.5C245.3,17.5,245.3,10,250.4,10L250.4,10z M250.4,10.7c-4.2,0-4.2,6.1,0,6.1
	S254.7,10.7,250.4,10.7L250.4,10.7z M251.1,14.3l0.7,1.6H251l-0.6-1.6h-0.6l-0.3,1.6h-0.7l0.6-4h1.8c0,0,1,0.3,1,1.3
	C252.1,14.3,251.1,14.3,251.1,14.3L251.1,14.3z M250.9,12.3h-0.7l-0.1,1.3h0.7c0,0,0.7,0.1,0.8-0.6
	C251.6,12.3,250.9,12.3,250.9,12.3L250.9,12.3z"/>
</svg>
