<svg version="1.1" id="team1" xmlns="http://www.w3.org/2000/svg" x="0px" y="0px" viewBox="0 0 240 40" style="width: 240px; height: 40px;">
<path fill="#7F96A6" d="M230.6,32c-2,0-3.5,1.6-3.5,3.4c0,2,1.6,3.5,3.5,3.5s3.4-1.6,3.4-3.5C234.2,33.7,232.6,32,230.6,32L230.6,32
	L230.6,32L230.6,32z M230.6,38.7c-1.7,0-3.1-1.3-3.1-3.1c0-1.7,1.3-3.1,3.1-3.1c1.7,0,3.1,1.3,3.1,3.1
	C233.7,37.3,232.4,38.7,230.6,38.7L230.6,38.7L230.6,38.7L230.6,38.7z"/>
<path fill="#7F96A6" d="M232.5,34.5c0-0.4-0.1-0.7-0.5-0.9c-0.2-0.1-0.6-0.2-1-0.2l0,0h-1.7v3.9h0.5v-1.8h0.9l1.1,1.8h0.6l-1.2-1.8
	l0,0C232,35.7,232.5,35.5,232.5,34.5L232.5,34.5L232.5,34.5L232.5,34.5z M230.6,35.4h-0.7v-1.3h1.1l0,0c0.5,0,1,0.1,1,0.7
	C232,35.5,231.1,35.4,230.6,35.4L230.6,35.4L230.6,35.4L230.6,35.4z"/>
<path fill="#7F96A6" d="M210.3,15.9l7.1-7.6l0,0c0.4-0.6,0.6-1,0.6-1.3c0-0.6-0.5-0.7-2-0.7l0,0h-1.8V1.5h19.4v4.8H231l0,0
	c-2.9,0-3.5,0.5-7.6,5.6l0,0L212.3,24v7.4l0,0c0,2,1,2.6,3.7,2.6l0,0h4.3v4.6h-27.2V34h4.3l0,0c2.7,0,3.7-0.6,3.7-2.6l0,0V24
	L187.8,9.4l0,0c-2.2-2.6-1.8-3.2-8-3.2l0,0V1.5h24.6v4.8h-1.6l0,0c-1.8,0-2.6,0.4-2.6,1s0.5,1,0.9,1.5l0,0l6.7,7.3l0,0
	C208.5,16.9,209.5,17,210.3,15.9L210.3,15.9L210.3,15.9L210.3,15.9z"/>
<path fill="#7F96A6" d="M45.2,1.5h6V15h-5.5l0,0c-0.5-2.7-2.2-3.7-3.7-5.1c-2.8-2.6-8.7-4.6-13.8-4.6c-6.5,0-12,2-12,5
	c0,8.2,37,1.7,37,17.2c0,8.1-8,12.6-22.2,12.6c-4.9,0-12.5-1.6-16.9-3.9c-1.3-0.9-2,0.7-2.2,2.7l0,0h-6V24.7h5.5l0,0
	c1.2,3.5,2.9,4.3,4.4,5.6c2.7,2.4,9.1,4.3,14.9,4.2c8.8-0.1,11.9-2,11.9-4.8s-2.9-3.4-12.6-5l0,0l-8.2-1.3l0,0
	C12.7,22,5.9,20.1,5.9,12.7c0-7.6,8.6-12.5,21.9-12.5c5.6,0,10.4,0.7,14.9,3.3C44.1,4.4,45.2,4.5,45.2,1.5L45.2,1.5L45.2,1.5
	L45.2,1.5z"/>
<path fill="#7F96A6" d="M161.1,23.8l0.1-14.9l0,0c0-2-1-2.6-3.9-2.6l0,0h-3.4V1.7h21.6v4.6h-2.7l0,0c-2.9,0-3.9,0.6-3.9,2.6l0,0
	v29.9l-8.6-0.1l-27.4-25.8v19l0,0c0,2,1,2.6,3.9,2.6l0,0h3.8V39h-22.4v-4.5h3.8l0,0c2.9,0,3.9-0.7,3.9-2.6l0,0V9.1l0,0
	c0-2-1-2.6-3.9-2.6l0,0h-3.8V1.7h19.6L161.1,23.8L161.1,23.8L161.1,23.8z"/>
<path fill="#7F96A6" d="M88.4,0c-17.4,0-28,7.7-28,19.9c0,12,10.5,19.6,27.5,19.6c18,0,28.4-7.5,28.4-20.2C116.3,7.8,105.1,0,88.4,0
	L88.4,0L88.4,0L88.4,0z M88,34.5c-9.5,0-15-5.5-15-15c0-9.3,5.7-14.9,15.5-14.9c9.4,0,14.9,5.6,14.9,15.3
	C103.5,29.4,97.8,34.5,88,34.5L88,34.5L88,34.5L88,34.5z"/>
</svg>
